:SAMPLES-PER-SECOND 24
:FULLY-SPECIFIED
:DEGREES
179
root  2.23195 38.7006 -17.3941 173.232 31.0933 168.291
RightUpLeg  -25.152 13.6628 -7.94173
RightLeg  27.4366 -4.82505 -2.94702
RightFoot  -0.843615 0.583262 -6.39906
RightToes  -2.09809e-008 3.77894e-005 6.81332e-007
Spine  7.99961 -4.42647 3.67835
Spine1  2.74673 -6.12988 9.31711
HEad  -14.5618 27.6761 -10.0385
LeftShoulder1  6.78875 -12.7835 -35.6469
LeftArm  12.1189 15.0331 -34.2275
LeftForeArm  163.44 -70.9861 -151.053
LeftHand  0.0141066 -3.36813 0.05598
RightShoulder  3.28967 5.86924 29.1703
RightArm  1.02489 -15.3443 21.401
RightForeArm  138.562 77.8493 128.22
RightHand  -0.632426 8.447 -5.67071
LeftUpLeg  -35.5485 14.7763 7.90556
LeftLeg  101.81 -1.1936 3.70443
LeftFoot  6.24991 1.98709 -13.0443
LeftToes  1.24773e-006 1.46318e-008 1.32523e-009
180
root  2.68082 39.1561 -18.197 166.911 34.6145 161.483
RightUpLeg  -21.6901 16.0596 -12.3117
RightLeg  27.1946 -2.85954 -1.83026
RightFoot  -2.31883 0.470736 -6.15781
RightToes  -2.09809e-008 3.77894e-005 6.81332e-007
Spine  9.08113 -2.48857 1.94739
Spine1  4.60464 -3.42279 5.06523
HEad  -13.5405 26.841 -10.5556
LeftShoulder1  6.65427 -12.6116 -35.2657
LeftArm  10.7621 17.4424 -34.1731
LeftForeArm  165.322 -69.7788 -153.07
LeftHand  0.00432383 -3.38442 0.186626
RightShoulder  3.29643 5.9195 29.0514
RightArm  3.23525 -9.9849 23.0444
RightForeArm  135.48 78.4955 124.173
RightHand  -0.640448 8.41112 -5.75085
LeftUpLeg  -45.6957 17.0424 12.1453
LeftLeg  106.864 -1.9685 4.91212
LeftFoot  5.83691 1.76007 -11.8508
LeftToes  1.24773e-006 1.46318e-008 1.32523e-009
181
root  3.1632 39.7539 -18.8378 159.776 37.4098 153.452
RightUpLeg  -18.3706 19.075 -17.1193
RightLeg  25.3672 -1.78365 -1.14599
RightFoot  -1.8611 0.555744 -6.83319
RightToes  -2.09809e-008 3.77894e-005 6.81332e-007
Spine  10.4272 -0.67135 0.324798
Spine1  4.96562 -0.394579 -0.956307
HEad  -11.7205 26.2219 -10.8259
LeftShoulder1  6.6621 -12.5803 -35.3922
LeftArm  9.88632 20.5521 -32.5795
LeftForeArm  166.598 -68.1574 -155.3
LeftHand  0.0092268 -3.49831 0.128632
RightShoulder  3.30964 5.95058 29.0769
RightArm  6.34124 -4.88725 24.4674
RightForeArm  132.022 78.9485 120.514
RightHand  -0.615954 8.53182 -5.50372
LeftUpLeg  -52.0347 21.2919 16.7326
LeftLeg  102.049 -1.40762 4.37551
LeftFoot  3.61677 1.67176 -12.9192
LeftToes  1.24773e-006 1.46318e-008 1.32523e-009
182
root  3.54705 40.2586 -19.4154 154.1 39.0166 146.685
RightUpLeg  -16.2096 21.811 -21.1296
RightLeg  23.5319 -1.79958 -1.0756
RightFoot  -1.46065 0.625088 -7.33005
RightToes  -2.09809e-008 3.77894e-005 6.81332e-007
Spine  10.8432 0.370392 0.0694259
Spine1  5.35433 1.87493 -6.65749
HEad  -10.5485 26.0442 -11.8627
LeftShoulder1  6.70708 -12.6021 -35.6114
LeftArm  9.11885 23.4928 -30.9148
LeftForeArm  167.151 -66.8665 -156.811
LeftHand  0.0412507 -3.41201 -0.300495
RightShoulder  3.24717 5.90588 28.5662
RightArm  9.92124 0.173449 26.4622
RightForeArm  129.088 79.3405 116.947
RightHand  -0.511809 8.94685 -4.52311
LeftUpLeg  -55.402 25.8119 20.5656
LeftLeg  89.2382 -0.398973 6.46701
LeftFoot  2.60867 1.92022 -15.7473
LeftToes  1.24773e-006 1.46318e-008 1.32523e-009
183
root  3.8392 40.6558 -20.1055 151.25 38.8224 142.551
RightUpLeg  -14.6237 22.1056 -24.2545
RightLeg  22.0643 -2.16273 -1.17954
RightFoot  -1.35664 0.645591 -7.47817
RightToes  -2.09809e-008 3.77894e-005 6.81332e-007
Spine  10.3205 0.727495 -0.105019
Spine1  5.22548 2.48565 -8.52643
HEad  -10.0799 26.1743 -13.3199
LeftShoulder1  6.66337 -12.5258 -35.5386
LeftArm  8.74926 25.7696 -30.1318
LeftForeArm  167.21 -66.2727 -157.434
LeftHand  0.0721081 -3.38629 -0.711426
RightShoulder  3.13425 5.805 27.7011
RightArm  13.712 4.42035 28.5678
RightForeArm  127.782 79.4561 115.648
RightHand  -0.514827 9.09739 -4.50527
LeftUpLeg  -56.4164 27.8214 22.9727
LeftLeg  69.7119 2.59429 8.63362
LeftFoot  5.97831 2.62075 -17.335
LeftToes  1.24773e-006 1.46318e-008 1.32523e-009
184
root  4.19624 41.0048 -20.723 150.355 37.4767 140.383
RightUpLeg  -13.0774 20.5535 -26.4378
RightLeg  20.7882 -2.44415 -1.23781
RightFoot  -0.969601 0.696277 -7.7256
RightToes  -2.09809e-008 3.77894e-005 6.81332e-007
Spine  9.90889 0.930517 -0.646471
Spine1  4.28508 2.38706 -8.98799
HEad  -10.2107 25.7162 -14.4742
LeftShoulder1  6.67271 -12.5415 -35.5559
LeftArm  9.06858 26.3696 -29.3578
LeftForeArm  166.38 -66.3019 -157.31
LeftHand  0.0805044 -3.51339 -0.802089
RightShoulder  3.08191 5.73119 27.3936
RightArm  16.2865 6.49949 29.8857
RightForeArm  129.922 79.1725 118.383
RightHand  -0.612583 9.05333 -5.29929
LeftUpLeg  -53.431 25.929 25.982
LeftLeg  44.0097 6.63961 7.06249
LeftFoot  8.85454 3.28756 -18.6434
LeftToes  1.24773e-006 1.46318e-008 1.32523e-009
185
root  4.58847 41.2324 -21.2801 149.47 36.8669 138.817
RightUpLeg  -11.7962 19.9003 -27.6756
RightLeg  20.2809 -2.76873 -1.34426
RightFoot  -1.2142 0.683588 -7.78728
RightToes  -2.09809e-008 3.77894e-005 6.81332e-007
Spine  9.76632 1.10929 0.160986
Spine1  3.98057 2.8263 -11.4195
HEad  -11.3152 24.9801 -15.5459
LeftShoulder1  6.69778 -12.5985 -35.5634
LeftArm  9.49769 25.2643 -28.7738
LeftForeArm  165.553 -66.6103 -156.899
LeftHand  0.0633033 -3.44865 -0.585623
RightShoulder  3.1132 5.77291 27.5871
RightArm  17.543 7.15466 30.7486
RightForeArm  132.713 78.856 121.294
RightHand  -0.630247 9.07806 -5.43222
LeftUpLeg  -46.0634 19.2319 32.1881
LeftLeg  17.0969 11.2366 5.50484
LeftFoot  7.39426 2.93346 -17.8686
LeftToes  1.24773e-006 1.46318e-008 1.32523e-009
186
root  4.82047 41.2846 -21.8312 147.122 37.3279 136.795
RightUpLeg  -11.2378 20.3082 -28.6893
RightLeg  21.7612 -2.51445 -1.3184
RightFoot  -2.10634 0.610616 -7.71787
RightToes  -2.09809e-008 3.77894e-005 6.81332e-007
Spine  11.0927 1.39144 0.874241
Spine1  3.66098 3.34456 -13.2678
HEad  -13.2083 24.9724 -17.0145
LeftShoulder1  6.76046 -12.6521 -35.8082
LeftArm  9.40808 23.6438 -28.9151
LeftForeArm  165.949 -66.8027 -156.742
LeftHand  0.0482131 -3.18389 -0.419017
RightShoulder  3.10082 5.80284 27.3376
RightArm  18.5311 7.61274 31.7795
RightForeArm  132.88 78.8273 121.518
RightHand  -0.619476 9.06513 -5.35047
LeftUpLeg  -42.6155 17.9977 30.6887
LeftLeg  2.13975 4.69466 8.13623
LeftFoot  2.27333 2.03944 -17.0812
LeftToes  1.24773e-006 1.46318e-008 1.32523e-009
187
root  4.83264 41.2527 -22.1317 144.957 37.6998 135.171
RightUpLeg  -12.1473 19.3611 -29.4256
RightLeg  25.0775 -1.68162 -1.07768
RightFoot  -2.26759 0.609882 -7.85974
RightToes  -2.09809e-008 3.77894e-005 6.81332e-007
Spine  13.7831 1.23878 0.395279
Spine1  2.8326 3.15848 -13.3501
HEad  -15.6779 25.7718 -18.387
LeftShoulder1  6.80914 -12.6861 -36.0161
LeftArm  8.5058 21.9697 -29.6567
LeftForeArm  166.506 -67.0206 -156.573
LeftHand  0.0323279 -3.03089 -0.218788
RightShoulder  3.10063 5.84194 27.1905
RightArm  18.9981 7.97057 32.5768
RightForeArm  130.497 79.075 119.215
RightHand  -0.640528 9.10873 -5.50382
LeftUpLeg  -42.3651 15.8763 30.8714
LeftLeg  4.53111 -0.953943 6.83924
LeftFoot  -0.285093 2.09291 -21.3883
LeftToes  1.24773e-006 1.46318e-008 1.32523e-009
188
root  4.7316 41.206 -22.6187 144.015 38.4404 134.343
RightUpLeg  -13.8457 16.8223 -29.859
RightLeg  28.5685 -0.471734 -0.509492
RightFoot  -2.45306 0.591796 -7.80778
RightToes  -2.09809e-008 3.77894e-005 6.81332e-007
Spine  14.899 0.978796 0.62083
Spine1  2.83323 2.65705 -12.199
HEad  -18.5866 26.7388 -19.6627
LeftShoulder1  6.82085 -12.7242 -35.99
LeftArm  7.19238 19.9702 -30.6448
LeftForeArm  165.832 -67.5474 -155.913
LeftHand  -0.00824347 -2.97114 0.340083
RightShoulder  3.13564 5.8846 27.4207
RightArm  18.1885 7.30862 32.8431
RightForeArm  128.653 79.2974 117.098
RightHand  -0.628314 9.29059 -5.34695
LeftUpLeg  -43.0246 10.5098 35.1024
LeftLeg  15.99 4.39503 1.72599
LeftFoot  2.5603 3.1162 -25.3657
LeftToes  1.24773e-006 1.46318e-008 1.32523e-009
189
root  4.69948 41.1231 -23.013 144.497 39.9059 134.845
RightUpLeg  -14.938 15.0667 -28.8805
RightLeg  30.0209 0.0759127 -0.189746
RightFoot  -2.94845 0.555437 -7.82005
RightToes  -2.09809e-008 3.77894e-005 6.81332e-007
Spine  14.864 0.638935 1.19457
Spine1  3.48577 2.22345 -10.5611
HEad  -21.1933 28.1783 -21.1129
LeftShoulder1  6.85052 -12.7681 -36.0568
LeftArm  6.41046 18.7995 -31.4269
LeftForeArm  165.281 -67.8752 -155.473
LeftHand  -0.0324612 -2.77204 0.678467
RightShoulder  3.19327 5.92643 27.8995
RightArm  16.8 4.70859 32.2055
RightForeArm  130.121 79.134 118.7
RightHand  -0.617949 9.2671 -5.2732
LeftUpLeg  -46.132 13.6684 29.4776
LeftLeg  28.8116 5.47003 3.64777
LeftFoot  5.95199 3.41005 -22.4644
LeftToes  1.24773e-006 1.46318e-008 1.32523e-009
